<?xml version="1.0" encoding="utf-8"?>
<!-- Generator: Adobe Illustrator 19.2.1, SVG Export Plug-In . SVG Version: 6.00 Build 0)  -->
<svg version="1.1" xmlns="http://www.w3.org/2000/svg" xmlns:xlink="http://www.w3.org/1999/xlink" x="0px" y="0px"
	 viewBox="0 0 420.2 274.1" style="enable-background:new 0 0 420.2 274.1;" xml:space="preserve">
<style type="text/css">
	.st0{stroke:#010101;stroke-width:3;}
	.st1{fill:#0071BC;}
	.st2{fill:#FFFFFF;stroke:#010101;stroke-width:5;}
	.st3{enable-background:new    ;}
	.st4{fill:#FFFFFF;stroke:#010101;stroke-width:2;}
</style>
<g id="Layer_2_2_">
	<path class="st0" d="M324.8,166.4c4.2-0.4,8.5-1,12.7-1.7c0.8-4.7,1.1-9.4,1.1-14.1c-4.1-1.4-8.2-2.6-12.2-3.7l-0.7-10.7l-1.8-10.6
		c3.7-2,7.4-4.1,11-6.4c-1.2-4.6-2.5-9.1-4.4-13.5c-4.3,0.3-8.6,0.7-12.8,1.3c-1.4-3.3-3.2-6.4-4.7-9.7c-1.8-3.1-3.8-6.1-5.7-9.1
		c2.7-3.3,5.2-6.7,7.7-10.2c-2.8-3.8-5.8-7.4-9.2-10.8c-3.9,1.9-7.6,3.9-11.3,6c-2.6-2.5-5.4-4.7-8.1-7.1c-2.9-2.1-5.8-4.2-8.8-6.2
		c1.2-4.1,2.3-8.2,3.3-12.4c-4-2.5-8.2-4.6-12.6-6.5c-2.8,3.2-5.5,6.5-8.1,9.9c-3.4-1.1-6.8-2.4-10.2-3.4c-3.5-0.8-7-1.8-10.5-2.4
		c-0.4-4.2-1-8.5-1.7-12.7c-4.7-0.8-9.4-1.1-14.1-1.1c-1.4,4.1-2.6,8.2-3.7,12.2l-10.7,0.7L198.8,46c-2-3.7-4.2-7.4-6.4-11
		c-4.6,1.2-9.1,2.5-13.5,4.4c0.3,4.3,0.7,8.6,1.2,12.8c-3.3,1.4-6.4,3.2-9.7,4.7c-3.1,1.8-6.1,3.8-9.1,5.7
		c-3.3-2.7-6.7-5.2-10.2-7.7c-3.8,2.8-7.4,5.8-10.8,9.2c1.9,3.9,3.9,7.6,6,11.3c-2.5,2.6-4.7,5.4-7.1,8.1c-2.1,2.9-4.2,5.8-6.2,8.8
		c-4.1-1.2-8.2-2.3-12.4-3.3c-2.5,4-4.6,8.2-6.5,12.6c3.2,2.8,6.5,5.5,9.9,8.1c-1.1,3.4-2.4,6.8-3.4,10.2c-0.8,3.5-1.8,7-2.4,10.5
		c-4.2,0.4-8.5,1-12.7,1.7c-0.8,4.7-1.1,9.4-1.1,14.1c4.1,1.4,8.2,2.6,12.2,3.7l0.7,10.7l1.8,10.6c-3.7,2-7.4,4.2-11,6.4
		c1.2,4.6,2.5,9.1,4.3,13.5c4.3-0.3,8.6-0.7,12.8-1.2c1.4,3.3,3.2,6.4,4.7,9.7c1.8,3.1,3.8,6.1,5.7,9.1c-2.7,3.3-5.2,6.7-7.7,10.2
		c2.8,3.8,5.8,7.4,9.2,10.8c3.9-1.9,7.6-3.9,11.3-6c2.6,2.5,5.4,4.7,8.1,7.1c2.9,2.1,5.8,4.2,8.8,6.2c-1.2,4.1-2.3,8.2-3.3,12.4
		c4,2.5,8.2,4.6,12.6,6.5c2.8-3.2,5.5-6.5,8.1-9.9c3.4,1.1,6.8,2.4,10.2,3.4c3.5,0.8,7,1.8,10.5,2.4c0.4,4.2,1,8.5,1.7,12.7
		c4.7,0.8,9.4,1.1,14.1,1.1c1.4-4.1,2.6-8.2,3.7-12.2l10.7-0.7l10.6-1.8c2,3.7,4.2,7.4,6.4,11c4.6-1.2,9.1-2.5,13.5-4.4
		c-0.3-4.3-0.7-8.6-1.3-12.8c3.3-1.4,6.4-3.2,9.7-4.7c3.1-1.8,6.1-3.8,9.1-5.7c3.3,2.7,6.7,5.2,10.2,7.7c3.8-2.8,7.4-5.8,10.8-9.2
		c-1.9-3.9-3.9-7.6-6-11.3c2.5-2.6,4.7-5.4,7.1-8.1c2.1-2.9,4.2-5.8,6.2-8.8c4.1,1.2,8.2,2.3,12.4,3.3c2.5-4,4.6-8.2,6.5-12.6
		c-3.2-2.8-6.5-5.5-9.9-8.1c1.1-3.4,2.4-6.8,3.4-10.2C323.2,173.4,324.2,170,324.8,166.4z M220.6,200.7c-28.3,0-51.2-22.9-51.2-51.2
		c0-28.3,22.9-51.2,51.2-51.2c28.3,0,51.2,22.9,51.2,51.2C271.8,177.8,248.8,200.7,220.6,200.7z"/>
	<path class="st1" d="M221.6,46.9c-56.2,0-101.8,45.6-101.8,101.8c0,56.2,45.6,101.8,101.8,101.8c56.2,0,101.8-45.6,101.8-101.8
		C323.3,92.5,277.8,46.9,221.6,46.9z M221.1,214c-35.6,0-64.5-28.9-64.5-64.5c0-35.6,28.9-64.5,64.5-64.5
		c35.6,0,64.5,28.9,64.5,64.5C285.6,185.1,256.7,214,221.1,214z"/>
	<path class="st1" d="M221.1,87.2c-34.4,0-62.2,27.9-62.2,62.3c0,34.4,27.9,62.3,62.2,62.3c34.4,0,62.3-27.9,62.3-62.3
		C283.3,115,255.4,87.2,221.1,87.2z M220.6,205.7c-31,0-56.2-25.2-56.2-56.2c0-31,25.2-56.2,56.2-56.2c31,0,56.2,25.2,56.2,56.2
		C276.7,180.5,251.6,205.7,220.6,205.7z"/>
	<circle class="st2" cx="220.6" cy="149.5" r="53.7"/>
</g>
<g id="Layer_1">
	<g class="st3">
		<path class="st4" d="M82.9,142.1l-11.4,3.7l1.1,32.3l11.6-3.8l0.6,15.4l-11.6,3.8l1,30.5l-12.7,9.7l-1.1-36.1l-10,3.2l-0.6-15.4
			l10-3.2L58.6,150l-33.1,10.7c-0.9,0.3-1.5,0.7-1.8,1.1c-0.3,0.5-0.4,0.9-0.2,1.4c0.2,0.7,0.7,1.4,1.5,2.2c0.8,0.8,1.7,1.5,2.8,2.2
			c0.3,0.2,0.7,0.4,1,0.7c0.3,0.3,0.6,0.5,1,0.7c1.2,0.8,2.2,1.5,3.3,2.1c1,0.6,1.7,1.1,2.1,1.4l-6.6,11.8c-0.7-0.5-1.4-1-2.2-1.5
			c-0.8-0.5-1.5-1.1-2.3-1.7c-2.7-1.9-5.3-4.1-7.9-6.6c-2.5-2.5-4.3-5.3-5.4-8.6c-1.3-4.1-1-8,1.1-11.6c2.1-3.6,7-6.7,14.7-9.2
			l55.8-18L82.9,142.1z"/>
	</g>
	<g class="st3">
		<path class="st4" d="M134.4,179.9l-5.9,1.9c0.7,5.8-0.3,11.4-3,16.7c-2.7,5.3-6.6,8.8-11.7,10.5c-0.2,0.1-0.5,0.2-0.7,0.2
			c-0.2,0.1-0.4,0.1-0.7,0.1c-0.2,0.1-0.5,0.1-0.7,0.1c-0.2,0-0.5,0.1-0.7,0.1c-4.8,0.7-9.2-0.4-13.2-3.5c-4-3-6.9-7.1-8.5-12.3
			c-2.2-6.7-1.9-13.3,0.7-19.9c2.6-6.6,6.9-10.9,12.9-12.8c3.6-1.2,7.2-1.1,10.8,0.1c3.5,1.2,6.6,3.4,9.1,6.6l11.1-3.6L134.4,179.9z
			 M108.5,184.1c-2.1-1.4-3.7-3.4-4.8-5.9c-1,1.4-1.7,3-2.1,4.8c-0.4,1.8-0.5,3.7-0.2,5.4c0,0.1,0.1,0.2,0.1,0.4
			c0,0.1,0.1,0.3,0.1,0.4c-0.1,0.1-0.1,0.3,0,0.4c0,0.1,0.1,0.3,0.1,0.4c0.6,1.7,1.6,3,2.9,4.1c1.3,1,2.8,1.3,4.5,0.7
			c1.6-0.5,3-1.6,4-3.3c1-1.7,1.7-3.5,2-5.5C112.8,186,110.6,185.4,108.5,184.1z"/>
	</g>
	<g class="st3">
		<path class="st4" d="M177.8,165.9l-5.9,1.9c0.7,5.8-0.3,11.4-3,16.7c-2.7,5.3-6.6,8.8-11.7,10.5c-0.2,0.1-0.5,0.2-0.7,0.2
			c-0.2,0.1-0.4,0.1-0.7,0.1c-0.2,0.1-0.5,0.1-0.7,0.2c-0.2,0-0.5,0.1-0.7,0.1c-4.8,0.7-9.2-0.4-13.2-3.5c-4-3-6.9-7.1-8.5-12.3
			c-2.2-6.7-1.9-13.3,0.7-19.9c2.6-6.6,6.9-10.9,12.9-12.8c3.6-1.2,7.2-1.1,10.8,0.1c3.5,1.2,6.6,3.4,9.1,6.6l11.1-3.6L177.8,165.9z
			 M151.9,170.1c-2.1-1.4-3.7-3.4-4.8-5.9c-1,1.4-1.7,3-2.1,4.8c-0.4,1.8-0.5,3.7-0.2,5.4c0,0.1,0.1,0.2,0.1,0.4
			c0,0.1,0.1,0.3,0.1,0.4c-0.1,0.1-0.1,0.3,0,0.4c0,0.1,0.1,0.3,0.1,0.4c0.6,1.7,1.6,3,2.9,4.1c1.3,1,2.8,1.3,4.5,0.7
			c1.6-0.5,3-1.6,4-3.3c1-1.7,1.7-3.5,2-5.5C156.2,172,154,171.4,151.9,170.1z"/>
	</g>
	<g class="st3">
		<path class="st4" d="M247.7,165.5l-8.4,2.7c-3.1,1-5.9,0.7-8.5-1c-2.6-1.6-4.5-4.1-5.5-7.3c-0.2-0.7-0.4-1.4-0.5-2.1
			c-0.1-0.7-0.2-1.5-0.2-2.2c-0.1-2-0.2-4.1-0.3-6.1c-0.1-2-0.1-4-0.1-6c0-0.3,0-0.6,0-0.9c0-0.3,0-0.5-0.1-0.7c0-0.5,0-1.1,0-1.6
			c0-0.6-0.1-1.1-0.2-1.6c-0.7,0.5-1.3,1.3-2,2.2c-0.7,0.9-1.3,2-1.9,3.3c-1.6,3-2.9,6.4-4,10.2c-1.1,3.8-1.6,7.5-1.7,11.2
			c0,1.7,0,3.4,0.2,5.2c0.1,1.8,0.2,3.5,0.3,5.3l-13,4.2c0-1.2-0.1-2.5-0.2-3.8c-0.1-1.3-0.2-2.6-0.2-3.9c-0.1-1.3-0.1-2.6-0.1-3.9
			c0-1.3,0-2.6,0.1-3.8c-0.1-1.1-0.2-2.2-0.2-3.4c0-1.1-0.1-2.3-0.1-3.5c0-1.1,0-2.3-0.1-3.4c0-1.1-0.1-2.3-0.1-3.4
			c0-0.2,0-0.4,0-0.6c0-0.2-0.1-0.4-0.1-0.6c0-0.5,0-1.1-0.1-1.7c-0.1-0.6-0.1-1.2-0.2-1.8c-0.6,0.5-1.2,1.2-1.9,2.2
			c-0.7,1-1.3,2-1.9,3.3c-1.6,3.1-2.9,6.5-4,10.2c-1.1,3.7-1.6,7.4-1.5,11.1l0.4,10.5l-12.7,4.1l-1.9-49.9l13-4.2l0,3.4
			c0.8-1,1.7-1.9,2.6-2.6c1-0.8,2-1.5,3.1-2.2c0.3-0.1,0.7-0.2,1.1-0.4c0.4-0.2,0.8-0.3,1.1-0.4c1.9-0.6,3.8-0.7,5.6-0.3
			c1.9,0.4,3.7,1.6,5.5,3.5c0,0.1,0.1,0.2,0.2,0.2c0,0.1,0.1,0.2,0.2,0.2c1.5-2.7,3.2-5,5.1-7.1c1.9-2.1,4-3.5,6.3-4.2
			c0.7-0.2,1.4-0.4,2.1-0.4c0.7-0.1,1.5-0.1,2.2,0c2.8,0.3,5.1,1.5,6.7,3.4c1.7,1.9,2.9,4.2,3.8,6.8c0.6,1.8,1,3.6,1.3,5.4
			c0.3,1.8,0.4,3.6,0.4,5.3c0,0.7,0,1.5,0,2.3c0,0.8,0.1,1.5,0.1,2.2c0.1,0.8,0.1,1.6,0.1,2.3c0,0.7,0,1.5,0.1,2.3l9.6-3.1
			L247.7,165.5z"/>
	</g>
	<g class="st3">
		<path class="st4" d="M296.2,149.8l-12,3.9c-1.3,0.4-2.6,0.6-3.8,0.5c-1.2-0.1-2.4-0.4-3.6-0.9c-1,1.2-2.1,2.4-3.3,3.4
			c-1.3,1-2.6,1.9-3.9,2.5c-0.5,0.3-0.9,0.5-1.4,0.7c-0.5,0.2-1,0.4-1.5,0.5c-2.6,0.8-5.2,0.9-7.9,0.4c-2.7-0.6-5.2-2.1-7.4-4.6
			c-0.9-1.1-1.6-2.1-2.3-3.2c-0.6-1.1-1.1-2.3-1.5-3.5c-0.8-2.5-1.1-5-1.1-7.5c0.1-2.6,0.5-5.1,1.1-7.5c2.1-7.7,5.8-13.8,11.1-18.3
			c5.3-4.6,11.2-8,17.8-10.3c0.2-0.1,0.5-0.2,0.8-0.3c0.3-0.1,0.6-0.2,0.9-0.3l4.6,14.1c-2.6,0.9-5.2,1.9-7.7,3.1
			c-2.5,1.2-4.7,2.7-6.8,4.5c-1.9,1.5-3.5,3.4-4.9,5.5c-1.4,2.1-2.5,4.5-3.2,7.1c0,0.2-0.1,0.5-0.1,0.8c-0.1,0.3-0.1,0.7-0.2,1.1
			c-0.1,0.3-0.1,0.7-0.2,1c0,0.3-0.1,0.7-0.1,1.1c0,0.3,0,0.7,0.1,1.1c0,0.4,0.1,0.7,0.2,1c0.1,0.4,0.4,0.7,0.7,0.9
			c0.4,0.3,0.8,0.3,1.4,0.1c3.2-1,5.2-3,6-6c0.8-3,1.1-6,1.1-9.2c0-0.7-0.1-1.4-0.1-2c0-0.6,0-1.2-0.1-1.9l13,0.6l0.4,10.6l13.2-4.3
			L296.2,149.8z"/>
	</g>
	<g class="st3">
		<path class="st4" d="M313.2,109.4l-6.6,2.1l0.6,19.4l14.7-4.7l0.5,15.2l-13.9,4.5c-3,1-5.7,0.6-8.3-1.1c-2.6-1.7-4.4-4-5.3-7
			c-0.1-0.3-0.2-0.6-0.2-0.9c-0.1-0.3-0.2-0.7-0.3-1.1c0-0.4-0.1-0.8-0.1-1.1c0-0.4,0-0.7,0-1l-0.6-17.9l-6.9,2.2l-0.4-15.3l6.8-2.2
			l-0.6-18l13,0.6l0.5,13.3l6.6-2.1L313.2,109.4z"/>
	</g>
	<g class="st3">
		<path class="st4" d="M333.5,71.4c-1,2.4-2.7,4.1-5.1,4.8c-2.3,0.7-4.6,0.4-6.9-1c-2.3-1.4-3.8-3.4-4.7-6c-0.8-2.6-0.8-5.2,0.3-7.6
			c1-2.4,2.7-4,5-4.7c2.4-0.8,4.7-0.5,6.9,0.9c2.2,1.4,3.7,3.4,4.6,6C334.6,66.4,334.5,68.9,333.5,71.4z M348.3,133l-11.1,3.6
			c-3.1,1-5.9,0.6-8.5-1.1c-2.6-1.7-4.5-4.1-5.5-7.2c-0.1-0.4-0.2-0.7-0.3-1.1c-0.1-0.3-0.2-0.7-0.3-1.1c0-0.3,0-0.6,0-1
			c0-0.4-0.1-0.7-0.1-1.1l-1.3-32.8l13-4.2l1.3,34.6l12.2-3.9L348.3,133z"/>
	</g>
	<g>
		<path class="st4" d="M391.4,119.1L364,128c-2.3,0.7-4.6,0.8-7,0.3c-2.4-0.5-4.5-1.8-6.3-3.8c-0.9-1-1.6-2-2.2-3.1
			c-0.6-1.1-1.1-2.3-1.5-3.5c-0.8-2.4-1.2-4.8-1.3-7.2c-0.1-2.5-0.1-4.8,0.1-7c0-0.1,0-0.2,0-0.2c0-0.1,0-0.1,0-0.2
			c0.6-5.6,2.6-11.2,5.8-16.7c3.2-5.5,7.3-9.1,12.3-10.7c0.2-0.1,0.3-0.1,0.4-0.1c0.1,0,0.3-0.1,0.4-0.1c0.1,0.1,0.3,0.1,0.4,0
			c0.2-0.1,0.3-0.1,0.5-0.2c3.3-0.6,6.2-0.1,8.9,1.5c2.7,1.6,4.6,4.2,5.7,7.7c0,0.1,0.1,0.2,0.1,0.4c0.1,0.2,0.1,0.3,0.1,0.4
			c0.1,0.2,0.1,0.4,0.1,0.5c0,0.2,0,0.3,0.1,0.5l1.4,6.4l-12.4,4l-1.6-7c-2.3,1-4.3,2.8-5.8,5.4c-1.5,2.7-2.5,5.4-3.1,8.2
			c-0.1,0.6-0.2,1-0.3,1.5c-0.1,0.4-0.1,0.9-0.2,1.3c0,0.1,0,0.4,0,1c0,0.6-0.1,1.3-0.1,2.1c-0.1,0.1-0.1,0.3-0.1,0.4
			c0,0.2,0,0.3-0.1,0.4c0,0.7,0.1,1.4,0.1,2.1c0,0.7,0.1,1.1,0.2,1.4c0,0.1,0.1,0.2,0.2,0.3c0.1,0.1,0.1,0.1,0.2,0.1l31.5-10.2
			L391.4,119.1z"/>
	</g>
</g>
</svg>
