<svg xmlns="http://www.w3.org/2000/svg" viewBox="0 0 420.2 274.1"><style>.st0{stroke:#010101;stroke-width:3;} .st1{fill:#0071BC;} .st2{fill:#FFFFFF;stroke:#010101;stroke-width:5;} .st3{enable-background:new ;} .st4{fill:#FFFFFF;stroke:#010101;stroke-width:2;}</style><g id="Layer_2_2_"><path class="st0" d="M324.8 166.4c4.2-.4 8.5-1 12.7-1.7.8-4.7 1.1-9.4 1.1-14.1-4.1-1.4-8.2-2.6-12.2-3.7l-.7-10.7-1.8-10.6c3.7-2 7.4-4.1 11-6.4-1.2-4.6-2.5-9.1-4.4-13.5-4.3.3-8.6.7-12.8 1.3-1.4-3.3-3.2-6.4-4.7-9.7-1.8-3.1-3.8-6.1-5.7-9.1 2.7-3.3 5.2-6.7 7.7-10.2-2.8-3.8-5.8-7.4-9.2-10.8-3.9 1.9-7.6 3.9-11.3 6-2.6-2.5-5.4-4.7-8.1-7.1-2.9-2.1-5.8-4.2-8.8-6.2 1.2-4.1 2.3-8.2 3.3-12.4-4-2.5-8.2-4.6-12.6-6.5-2.8 3.2-5.5 6.5-8.1 9.9-3.4-1.1-6.8-2.4-10.2-3.4-3.5-.8-7-1.8-10.5-2.4-.4-4.2-1-8.5-1.7-12.7-4.7-.8-9.4-1.1-14.1-1.1-1.4 4.1-2.6 8.2-3.7 12.2l-10.7.7-10.5 1.8c-2-3.7-4.2-7.4-6.4-11-4.6 1.2-9.1 2.5-13.5 4.4.3 4.3.7 8.6 1.2 12.8-3.3 1.4-6.4 3.2-9.7 4.7-3.1 1.8-6.1 3.8-9.1 5.7-3.3-2.7-6.7-5.2-10.2-7.7-3.8 2.8-7.4 5.8-10.8 9.2 1.9 3.9 3.9 7.6 6 11.3-2.5 2.6-4.7 5.4-7.1 8.1-2.1 2.9-4.2 5.8-6.2 8.8-4.1-1.2-8.2-2.3-12.4-3.3-2.5 4-4.6 8.2-6.5 12.6 3.2 2.8 6.5 5.5 9.9 8.1-1.1 3.4-2.4 6.8-3.4 10.2-.8 3.5-1.8 7-2.4 10.5-4.2.4-8.5 1-12.7 1.7-.8 4.7-1.1 9.4-1.1 14.1 4.1 1.4 8.2 2.6 12.2 3.7l.7 10.7 1.8 10.6c-3.7 2-7.4 4.2-11 6.4 1.2 4.6 2.5 9.1 4.3 13.5 4.3-.3 8.6-.7 12.8-1.2 1.4 3.3 3.2 6.4 4.7 9.7 1.8 3.1 3.8 6.1 5.7 9.1-2.7 3.3-5.2 6.7-7.7 10.2 2.8 3.8 5.8 7.4 9.2 10.8 3.9-1.9 7.6-3.9 11.3-6 2.6 2.5 5.4 4.7 8.1 7.1 2.9 2.1 5.8 4.2 8.8 6.2-1.2 4.1-2.3 8.2-3.3 12.4 4 2.5 8.2 4.6 12.6 6.5 2.8-3.2 5.5-6.5 8.1-9.9 3.4 1.1 6.8 2.4 10.2 3.4 3.5.8 7 1.8 10.5 2.4.4 4.2 1 8.5 1.7 12.7 4.7.8 9.4 1.1 14.1 1.1 1.4-4.1 2.6-8.2 3.7-12.2l10.7-.7 10.6-1.8c2 3.7 4.2 7.4 6.4 11 4.6-1.2 9.1-2.5 13.5-4.4-.3-4.3-.7-8.6-1.3-12.8 3.3-1.4 6.4-3.2 9.7-4.7 3.1-1.8 6.1-3.8 9.1-5.7 3.3 2.7 6.7 5.2 10.2 7.7 3.8-2.8 7.4-5.8 10.8-9.2-1.9-3.9-3.9-7.6-6-11.3 2.5-2.6 4.7-5.4 7.1-8.1 2.1-2.9 4.2-5.8 6.2-8.8 4.1 1.2 8.2 2.3 12.4 3.3 2.5-4 4.6-8.2 6.5-12.6-3.2-2.8-6.5-5.5-9.9-8.1 1.1-3.4 2.4-6.8 3.4-10.2.9-3.6 1.9-7 2.5-10.6zm-104.2 34.3c-28.3 0-51.2-22.9-51.2-51.2 0-28.3 22.9-51.2 51.2-51.2 28.3 0 51.2 22.9 51.2 51.2 0 28.3-23 51.2-51.2 51.2z"/><path class="st1" d="M221.6 46.9c-56.2 0-101.8 45.6-101.8 101.8 0 56.2 45.6 101.8 101.8 101.8 56.2 0 101.8-45.6 101.8-101.8-.1-56.2-45.6-101.8-101.8-101.8zm-.5 167.1c-35.6 0-64.5-28.9-64.5-64.5S185.5 85 221.1 85s64.5 28.9 64.5 64.5-28.9 64.5-64.5 64.5z"/><path class="st1" d="M221.1 87.2c-34.4 0-62.2 27.9-62.2 62.3s27.9 62.3 62.2 62.3c34.4 0 62.3-27.9 62.3-62.3-.1-34.5-28-62.3-62.3-62.3zm-.5 118.5c-31 0-56.2-25.2-56.2-56.2 0-31 25.2-56.2 56.2-56.2 31 0 56.2 25.2 56.2 56.2-.1 31-25.2 56.2-56.2 56.2z"/><circle class="st2" cx="220.6" cy="149.5" r="53.7"/></g><g id="Layer_1"><path class="st3 st4" d="M82.9 142.1l-11.4 3.7 1.1 32.3 11.6-3.8.6 15.4-11.6 3.8 1 30.5-12.7 9.7-1.1-36.1-10 3.2-.6-15.4 10-3.2-1.2-32.2-33.1 10.7c-.9.3-1.5.7-1.8 1.1-.3.5-.4.9-.2 1.4.2.7.7 1.4 1.5 2.2.8.8 1.7 1.5 2.8 2.2.3.2.7.4 1 .7.3.3.6.5 1 .7 1.2.8 2.2 1.5 3.3 2.1 1 .6 1.7 1.1 2.1 1.4l-6.6 11.8c-.7-.5-1.4-1-2.2-1.5-.8-.5-1.5-1.1-2.3-1.7-2.7-1.9-5.3-4.1-7.9-6.6-2.5-2.5-4.3-5.3-5.4-8.6-1.3-4.1-1-8 1.1-11.6 2.1-3.6 7-6.7 14.7-9.2l55.8-18 .5 15zM134.4 179.9l-5.9 1.9c.7 5.8-.3 11.4-3 16.7-2.7 5.3-6.6 8.8-11.7 10.5-.2.1-.5.2-.7.2-.2.1-.4.1-.7.1-.2.1-.5.1-.7.1-.2 0-.5.1-.7.1-4.8.7-9.2-.4-13.2-3.5-4-3-6.9-7.1-8.5-12.3-2.2-6.7-1.9-13.3.7-19.9 2.6-6.6 6.9-10.9 12.9-12.8 3.6-1.2 7.2-1.1 10.8.1 3.5 1.2 6.6 3.4 9.1 6.6l11.1-3.6.5 15.8zm-25.9 4.2c-2.1-1.4-3.7-3.4-4.8-5.9-1 1.4-1.7 3-2.1 4.8-.4 1.8-.5 3.7-.2 5.4 0 .1.1.2.1.4 0 .1.1.3.1.4-.1.1-.1.3 0 .4 0 .1.1.3.1.4.6 1.7 1.6 3 2.9 4.1 1.3 1 2.8 1.3 4.5.7 1.6-.5 3-1.6 4-3.3 1-1.7 1.7-3.5 2-5.5-2.3 0-4.5-.6-6.6-1.9z"/><path class="st3 st4" d="M177.8 165.9l-5.9 1.9c.7 5.8-.3 11.4-3 16.7-2.7 5.3-6.6 8.8-11.7 10.5-.2.1-.5.2-.7.2-.2.1-.4.1-.7.1-.2.1-.5.1-.7.2-.2 0-.5.1-.7.1-4.8.7-9.2-.4-13.2-3.5-4-3-6.9-7.1-8.5-12.3-2.2-6.7-1.9-13.3.7-19.9 2.6-6.6 6.9-10.9 12.9-12.8 3.6-1.2 7.2-1.1 10.8.1 3.5 1.2 6.6 3.4 9.1 6.6l11.1-3.6.5 15.7zm-25.9 4.2c-2.1-1.4-3.7-3.4-4.8-5.9-1 1.4-1.7 3-2.1 4.8-.4 1.8-.5 3.7-.2 5.4 0 .1.1.2.1.4 0 .1.1.3.1.4-.1.1-.1.3 0 .4 0 .1.1.3.1.4.6 1.7 1.6 3 2.9 4.1 1.3 1 2.8 1.3 4.5.7 1.6-.5 3-1.6 4-3.3 1-1.7 1.7-3.5 2-5.5-2.3 0-4.5-.6-6.6-1.9zM247.7 165.5l-8.4 2.7c-3.1 1-5.9.7-8.5-1-2.6-1.6-4.5-4.1-5.5-7.3-.2-.7-.4-1.4-.5-2.1-.1-.7-.2-1.5-.2-2.2-.1-2-.2-4.1-.3-6.1-.1-2-.1-4-.1-6v-.9c0-.3 0-.5-.1-.7v-1.6c0-.6-.1-1.1-.2-1.6-.7.5-1.3 1.3-2 2.2-.7.9-1.3 2-1.9 3.3-1.6 3-2.9 6.4-4 10.2-1.1 3.8-1.6 7.5-1.7 11.2 0 1.7 0 3.4.2 5.2.1 1.8.2 3.5.3 5.3l-13 4.2c0-1.2-.1-2.5-.2-3.8-.1-1.3-.2-2.6-.2-3.9-.1-1.3-.1-2.6-.1-3.9 0-1.3 0-2.6.1-3.8-.1-1.1-.2-2.2-.2-3.4 0-1.1-.1-2.3-.1-3.5 0-1.1 0-2.3-.1-3.4 0-1.1-.1-2.3-.1-3.4v-.6c0-.2-.1-.4-.1-.6 0-.5 0-1.1-.1-1.7-.1-.6-.1-1.2-.2-1.8-.6.5-1.2 1.2-1.9 2.2-.7 1-1.3 2-1.9 3.3-1.6 3.1-2.9 6.5-4 10.2-1.1 3.7-1.6 7.4-1.5 11.1l.4 10.5-12.7 4.1L177 138l13-4.2v3.4c.8-1 1.7-1.9 2.6-2.6 1-.8 2-1.5 3.1-2.2.3-.1.7-.2 1.1-.4.4-.2.8-.3 1.1-.4 1.9-.6 3.8-.7 5.6-.3 1.9.4 3.7 1.6 5.5 3.5 0 .1.1.2.2.2 0 .1.1.2.2.2 1.5-2.7 3.2-5 5.1-7.1 1.9-2.1 4-3.5 6.3-4.2.7-.2 1.4-.4 2.1-.4.7-.1 1.5-.1 2.2 0 2.8.3 5.1 1.5 6.7 3.4 1.7 1.9 2.9 4.2 3.8 6.8.6 1.8 1 3.6 1.3 5.4.3 1.8.4 3.6.4 5.3v2.3c0 .8.1 1.5.1 2.2.1.8.1 1.6.1 2.3 0 .7 0 1.5.1 2.3l9.6-3.1.5 15.1zM296.2 149.8l-12 3.9c-1.3.4-2.6.6-3.8.5-1.2-.1-2.4-.4-3.6-.9-1 1.2-2.1 2.4-3.3 3.4-1.3 1-2.6 1.9-3.9 2.5-.5.3-.9.5-1.4.7-.5.2-1 .4-1.5.5-2.6.8-5.2.9-7.9.4-2.7-.6-5.2-2.1-7.4-4.6-.9-1.1-1.6-2.1-2.3-3.2-.6-1.1-1.1-2.3-1.5-3.5-.8-2.5-1.1-5-1.1-7.5.1-2.6.5-5.1 1.1-7.5 2.1-7.7 5.8-13.8 11.1-18.3 5.3-4.6 11.2-8 17.8-10.3.2-.1.5-.2.8-.3l.9-.3 4.6 14.1c-2.6.9-5.2 1.9-7.7 3.1-2.5 1.2-4.7 2.7-6.8 4.5-1.9 1.5-3.5 3.4-4.9 5.5-1.4 2.1-2.5 4.5-3.2 7.1 0 .2-.1.5-.1.8-.1.3-.1.7-.2 1.1-.1.3-.1.7-.2 1 0 .3-.1.7-.1 1.1 0 .3 0 .7.1 1.1 0 .4.1.7.2 1 .1.4.4.7.7.9.4.3.8.3 1.4.1 3.2-1 5.2-3 6-6 .8-3 1.1-6 1.1-9.2 0-.7-.1-1.4-.1-2 0-.6 0-1.2-.1-1.9l13 .6.4 10.6 13.2-4.3.7 15.3z"/><path class="st3 st4" d="M313.2 109.4l-6.6 2.1.6 19.4 14.7-4.7.5 15.2-13.9 4.5c-3 1-5.7.6-8.3-1.1-2.6-1.7-4.4-4-5.3-7-.1-.3-.2-.6-.2-.9-.1-.3-.2-.7-.3-1.1 0-.4-.1-.8-.1-1.1v-1l-.6-17.9-6.9 2.2-.4-15.3 6.8-2.2-.6-18 13 .6.5 13.3 6.6-2.1.5 15.1zM333.5 71.4c-1 2.4-2.7 4.1-5.1 4.8-2.3.7-4.6.4-6.9-1-2.3-1.4-3.8-3.4-4.7-6-.8-2.6-.8-5.2.3-7.6 1-2.4 2.7-4 5-4.7 2.4-.8 4.7-.5 6.9.9s3.7 3.4 4.6 6c1 2.6.9 5.1-.1 7.6zm14.8 61.6l-11.1 3.6c-3.1 1-5.9.6-8.5-1.1-2.6-1.7-4.5-4.1-5.5-7.2-.1-.4-.2-.7-.3-1.1-.1-.3-.2-.7-.3-1.1v-1c0-.4-.1-.7-.1-1.1l-1.3-32.8 13-4.2 1.3 34.6 12.2-3.9.6 15.3z"/><path class="st4" d="M391.4 119.1L364 128c-2.3.7-4.6.8-7 .3-2.4-.5-4.5-1.8-6.3-3.8-.9-1-1.6-2-2.2-3.1-.6-1.1-1.1-2.3-1.5-3.5-.8-2.4-1.2-4.8-1.3-7.2-.1-2.5-.1-4.8.1-7v-.2-.2c.6-5.6 2.6-11.2 5.8-16.7 3.2-5.5 7.3-9.1 12.3-10.7.2-.1.3-.1.4-.1.1 0 .3-.1.4-.1.1.1.3.1.4 0 .2-.1.3-.1.5-.2 3.3-.6 6.2-.1 8.9 1.5s4.6 4.2 5.7 7.7c0 .1.1.2.1.4.1.2.1.3.1.4.1.2.1.4.1.5 0 .2 0 .3.1.5l1.4 6.4-12.4 4-1.6-7c-2.3 1-4.3 2.8-5.8 5.4-1.5 2.7-2.5 5.4-3.1 8.2-.1.6-.2 1-.3 1.5-.1.4-.1.9-.2 1.3v1c0 .6-.1 1.3-.1 2.1-.1.1-.1.3-.1.4 0 .2 0 .3-.1.4 0 .7.1 1.4.1 2.1 0 .7.1 1.1.2 1.4 0 .1.1.2.2.3.1.1.1.1.2.1l31.5-10.2.9 15.2z"/></g></svg>